Coordinates
version=1
nRows=13
nColumns=36
inDegrees=yes

Units are S.I. units (second, meters, Newtons, ...)
If the header above contains a line with 'inDegrees', this indicates whether rotational values are in degrees (yes) or radians (no).

endheader
time	pelvis_tilt	pelvis_list	pelvis_rotation	pelvis_tx	pelvis_ty	pelvis_tz	hip_flexion_r	hip_adduction_r	hip_rotation_r	knee_angle_r	knee_angle_r_beta	ankle_angle_r	subtalar_angle_r	mtp_angle_r	hip_flexion_l	hip_adduction_l	hip_rotation_l	knee_angle_l	knee_angle_l_beta	ankle_angle_l	subtalar_angle_l	mtp_angle_l	lumbar_extension	lumbar_bending	lumbar_rotation	arm_flex_r	arm_add_r	arm_rot_r	elbow_flex_r	pro_sup_r	arm_flex_l	arm_add_l	arm_rot_l	elbow_flex_l	pro_sup_l
      1.02000000	      0.83365631	      2.39148426	      3.65670924	      1.08644586	      1.04328496	     -0.22127979	     23.81325777	     -4.02486323	     -6.07524332	     13.48908398	      0.23542893	     -2.48463252	     -2.34919709	     -7.17557491	     -7.91898022	      7.37140723	     -0.34507073	      0.59293534	      0.01034867	      7.98765736	      6.83325110	     -7.17557491	    -12.75633949	     -1.67781193	     -6.95541541	    -17.82020116	     -3.70229756	    -20.47902909	     36.91568285	    108.91230811	      1.67352861	    -10.16868048	    -14.66082379	     57.31722469	    102.76427498
      1.03000000	      0.52745341	      2.71250308	      3.78864983	      1.09960668	      1.04100093	     -0.22054504	     23.84338668	     -4.16409496	     -6.26226519	     10.41066334	      0.18170035	     -2.58247171	     -0.08206643	     -7.17982790	     -8.45897997	      7.60580867	     -0.27094818	      0.60032651	      0.01047767	      8.59995503	      7.10982836	     -7.17982790	    -12.38781982	     -1.99891049	     -7.16700669	    -18.51103609	     -3.48220758	    -20.76220329	     36.69176753	    108.85884256	      2.63841606	    -10.85436867	    -14.51326080	     58.32530681	    102.79256943
      1.04000000	      0.61009193	      2.90753509	      3.96507168	      1.11314297	      1.03926260	     -0.21985164	     23.36671855	     -4.19931136	     -6.93442498	      7.56035283	      0.13195305	     -2.36597496	      2.88055828	     -7.18619153	     -9.41503363	      7.66261239	     -0.40940755	      0.62725084	      0.01094759	      9.40728115	      7.58975829	     -7.18619153	    -12.41126189	     -2.15479297	     -7.42315988	    -19.13073777	     -3.25311255	    -21.25479819	     36.51619972	    108.88487566	      3.57027248	    -11.58253392	    -14.19111578	     59.35230123	    102.85783952
      1.05000000	      0.41300917	      3.12024773	      4.10329208	      1.12652094	      1.03715712	     -0.21902692	     23.21624697	     -4.20773477	     -7.11620107	      5.07873706	      0.08864068	     -1.99758042	      5.26910840	     -7.19073104	    -10.04675191	      7.75409765	     -0.33354373	      0.67874765	      0.01184638	     10.00133661	      7.93320667	     -7.19073104	    -12.13989331	     -2.35914357	     -7.59089793	    -19.77172213	     -3.03802936	    -21.56960290	     36.39633954	    108.88171504	      4.47381373	    -12.21128737	    -14.00840067	     60.30378858	    102.91698311
      1.06000000	      0.16094091	      3.31856844	      4.28904731	      1.13993035	      1.03505589	     -0.21824303	     23.15678350	     -4.21743466	     -7.28079162	      3.05657205	      0.05334725	     -1.47035879	      6.94072690	     -7.19328730	    -10.56542912	      7.82301297	     -0.23413188	      0.81311048	      0.01419145	     10.40040096	      8.09262512	     -7.19328730	    -11.79792985	     -2.53791090	     -7.74104196	    -20.39200232	     -2.82471328	    -21.74249637	     36.24342547	    108.85227091	      5.37112316	    -12.71959958	    -13.90836768	     61.23271126	    102.98117449
      1.07000000	      0.40429510	      3.35329235	      4.34981174	      1.15369235	      1.03366331	     -0.21738118	     22.64923748	     -4.05585621	     -8.07694607	      1.60279980	      0.02797413	     -0.60225922	     10.22203430	     -7.19895962	    -11.65747912	      7.69227470	     -0.32823303	      0.89046135	      0.01554148	     11.17612034	      8.39385358	     -7.19895962	    -12.02303187	     -2.49637901	     -7.96049052	    -20.84939494	     -2.66717317	    -22.21531972	     36.24501760	    108.94317763	      6.01579410	    -13.43694988	    -13.51528371	     62.29895112	    103.14221155
      1.08000000	      0.29949640	      3.43624142	      4.52565062	      1.16731692	      1.03193286	     -0.21670286	     22.71146918	     -4.02209511	     -9.08499737	      0.99409474	      0.01735023	      0.69976332	     12.80103093	     -7.20571157	    -12.26003098	      7.62083567	     -0.33399240	      1.14881660	      0.02005063	     11.57876264	      8.68877777	     -7.20571157	    -11.84790654	     -2.53049400	     -8.11146192	    -21.38709069	     -2.48166675	    -22.61758598	     36.29229854	    109.07568448	      6.73119299	    -13.91305111	    -13.33559518	     63.25228321	    103.29795917
      1.09000000	      0.28784612	      3.42379545	      4.69103495	      1.18108910	      1.03051944	     -0.21587947	     22.65472182	     -3.86280577	     -9.99811543	      0.73501450	      0.01282842	      1.58220751	     14.77046867	     -7.21431146	    -12.92567174	      7.42657861	     -0.30166617	      1.45796477	      0.02544629	     11.80753084	      8.85581593	     -7.21431146	    -11.75271445	     -2.45008834	     -8.32448131	    -21.83886131	     -2.31520613	    -22.97690573	     36.30984690	    109.26567848	      7.31847786	    -14.39277581	    -13.26206612	     64.13480834	    103.48256406
      1.10000000	      0.17191043	      3.38704617	      4.77825388	      1.19487782	      1.02913725	     -0.21490575	     22.61482571	     -3.60299491	    -10.13892882	      0.61595005	      0.01075036	      1.82181635	     15.06925830	     -7.21644518	    -13.41431100	      7.23066867	     -0.29876380	      1.87694975	      0.03275895	     11.94204099	      8.77423243	     -7.21644518	    -11.53878408	     -2.38109508	     -8.34587849	    -22.21947000	     -2.21662026	    -23.05416921	     36.19754175	    109.26168750	      7.89808343	    -14.71498820	    -13.24362125	     64.96175685	    103.56574748
      1.11000000	      0.26856378	      3.25727458	      4.89585774	      1.20896383	      1.02822360	     -0.21384865	     22.22394828	     -3.23996813	    -10.35614243	      0.62410958	      0.01089277	      1.75628967	     15.42080675	     -7.22021492	    -14.05216006	      6.88412834	     -0.46029747	      2.44108515	      0.04260497	     12.13551105	      8.73005490	     -7.22021492	    -11.56419915	     -2.18652049	     -8.54480256	    -22.51106576	     -2.12885384	    -23.24713693	     36.19567908	    109.29914606	      8.19808809	    -15.17000437	    -13.15943130	     65.99174049	    103.70629663
      1.12000000	      0.36647464	      3.06818206	      5.03250820	      1.22327808	      1.02756222	     -0.21264721	     21.70169137	     -2.79489956	    -10.33387167	      0.67282661	      0.01174304	      1.21442112	     15.19252827	     -7.22522107	    -14.59512381	      6.43671685	     -0.66451822	      3.17838536	      0.05547329	     12.18749987	      8.87366481	     -7.22522107	    -11.54754671	     -1.94348358	     -8.75269009	    -22.74581616	     -2.02254135	    -23.45908206	     36.20390865	    109.40229253	      8.36709058	    -15.53353019	    -13.28202641	     66.97446684	    103.86311978
      1.13000000	      0.44894393	      2.85059036	      5.17180839	      1.23776585	      1.02710001	     -0.21136596	     21.10623955	     -2.30896897	    -10.13472444	      0.75311299	      0.01314430	      0.25400938	     14.51212378	     -7.22978422	    -14.98970245	      5.94239710	     -0.94342718	      4.15182528	      0.07246302	     12.13816213	      8.87141234	     -7.22978422	    -11.50049089	     -1.67795973	     -8.91055883	    -22.95708939	     -1.92426988	    -23.59913512	     36.14868609	    109.41415940	      8.45935073	    -15.82524424	    -13.38515663	     67.92308488	    103.95644869
      1.14000000	      0.47223040	      2.60769930	      5.28013341	      1.25241927	      1.02678941	     -0.20989061	     20.48779078	     -1.76558034	     -9.59724284	      0.81151539	      0.01416362	     -1.10734252	     13.23604198	     -7.23627815	    -15.20203753	      5.40047066	     -1.29436167	      5.33844229	      0.09317339	     12.05284203	      8.99844354	     -7.23627815	    -11.37616214	     -1.40646021	     -9.10769890	    -23.08959832	     -1.84989561	    -23.72468688	     36.08732274	    109.45173206	      8.33360737	    -16.09300592	    -13.65616069	     68.95037586	    104.04709148
